#N canvas 691 98 671 404 10;
#X obj 148 160 samphold~;
#X obj 56 75 osc~ 600;
#X obj 143 252 dac~;
#X obj 238 117 phasor~;
#X obj 147 43 adc~;
#X msg 209 7 44099;
#X msg 242 38 22050;
#X msg 311 64 11025;
#X msg 375 91 5501;
#X obj 308 11 hsl 128 15 200 44099 0 0 empty empty empty -2 -8 0 10
-262144 -1 -1 12700 1;
#X connect 0 0 2 0;
#X connect 3 0 0 1;
#X connect 4 0 0 0;
#X connect 5 0 3 0;
#X connect 6 0 3 0;
#X connect 7 0 3 0;
#X connect 8 0 3 0;
#X connect 9 0 3 0;
