#N canvas 469 24 855 763 10;
#X obj 204 144 adc~;
#X obj 209 234 dac~;
#X obj 594 234 cnv 15 100 60 empty empty empty 20 12 0 14 -195568 -66577
0;
#N canvas 607 22 635 258 gemwin 1;
#X obj 132 136 gemwin;
#X obj 67 89 outlet;
#X obj 67 10 inlet;
#X obj 67 41 route create;
#X msg 67 70 set destroy;
#X msg 142 68 set create;
#X msg 198 112 destroy;
#X msg 132 112 create \, 1;
#X connect 2 0 3 0;
#X connect 3 0 4 0;
#X connect 3 0 7 0;
#X connect 3 1 5 0;
#X connect 3 1 6 0;
#X connect 4 0 1 0;
#X connect 5 0 1 0;
#X connect 6 0 0 0;
#X connect 7 0 0 0;
#X restore 599 273 pd gemwin;
#X msg 599 254 destroy;
#X text 595 233 Create window:;
#X msg 503 66 draw line;
#X msg 503 87 draw fill;
#X msg 503 109 draw point;
#X obj 571 35 gemhead;
#X floatatom 602 95 5 0 0 0 - - -;
#X obj 287 396 sig~;
#X obj 360 310 snapshot~;
#X floatatom 365 347 0 0 0 0 - - -;
#X obj 360 260 loadbang;
#X obj 412 160 tgl 15 0 empty empty empty 17 7 0 10 -262144 -1 -1 1
1;
#X floatatom 420 495 5 0 0 0 - - -;
#X obj 363 383 abs;
#X floatatom 360 418 5 0 0 0 - - -;
#X obj 365 467 * 120;
#X obj 409 -86 snapshot~;
#X floatatom 414 -49 0 0 0 0 - - -;
#X obj 409 -136 loadbang;
#X obj 412 -13 abs;
#X obj 409 -112 metro 5;
#X obj 506 -141 tgl 15 0 empty empty empty 17 7 0 10 -262144 -1 -1
1 1;
#X floatatom 412 72 5 0 0 0 - - -;
#X obj 416 34 * 2;
#X obj 309 -151 osc~ 1;
#X text 49 -128 set rendering order;
#X obj 61 -72 cnv 15 100 40 empty empty empty 20 12 0 14 -24198 -66577
0;
#X msg 71 -106 set 45;
#X msg 134 -104 set 55;
#X obj 71 -63 gemhead 55;
#X obj 71 -24 translate 2 1 0 0;
#X obj 63 254 triangle 0.5;
#X obj 45 156 translate 2 1 0 0;
#X obj 174 77 sphere 0.75 30;
#X obj 565 189 sphere 0.75 30;
#X obj 360 284 metro 5;
#X connect 0 0 1 0;
#X connect 0 0 12 0;
#X connect 0 1 1 1;
#X connect 3 0 4 0;
#X connect 4 0 3 0;
#X connect 6 0 38 0;
#X connect 7 0 38 0;
#X connect 8 0 38 0;
#X connect 9 0 38 0;
#X connect 10 0 38 1;
#X connect 12 0 13 0;
#X connect 12 0 13 0;
#X connect 13 0 17 0;
#X connect 14 0 39 0;
#X connect 15 0 39 0;
#X connect 16 0 10 0;
#X connect 17 0 18 0;
#X connect 18 0 19 0;
#X connect 19 0 16 0;
#X connect 20 0 21 0;
#X connect 20 0 21 0;
#X connect 21 0 23 0;
#X connect 22 0 24 0;
#X connect 23 0 27 0;
#X connect 24 0 20 0;
#X connect 25 0 24 0;
#X connect 26 0 34 1;
#X connect 27 0 26 0;
#X connect 28 0 20 0;
#X connect 31 0 33 0;
#X connect 32 0 33 0;
#X connect 33 0 34 0;
#X connect 33 0 36 0;
#X connect 34 0 37 0;
#X connect 36 0 35 0;
#X connect 39 0 12 0;
