#N canvas 115 22 988 712 10;
#X obj -184 -179 gemwin;
#X msg -183 -228 create;
#X msg -115 -228 destroy;
#X text -134 -181 this controls the gemwindow;
#X msg -217 -208 1;
#X obj 334 -155 gemhead;
#X obj 337 -120 translateXYZ;
#X obj 394 -277 vsl 15 128 -10 10 0 0 empty empty empty 0 -9 0 10 -262144
-1 -1 6100 1;
#X obj 424 -281 vsl 15 128 -10 10 0 0 empty empty empty 0 -9 0 10 -262144
-1 -1 6100 1;
#X obj 451 -279 vsl 15 128 -10 10 0 0 empty empty empty 0 -9 0 10 -262144
-1 -1 5800 1;
#X obj 342 -58 rotate 45 0 0 1;
#X floatatom 396 -84 5 0 0 0 - - -;
#X text 261 -119 move around;
#X text 297 -60 rotate;
#X obj 455 96 pix_draw;
#X obj 140 -337 snapshot~;
#X floatatom 136 -301 5 0 0 0 - - -;
#X obj 175 -365 metro 10;
#X obj 187 -387 tgl 15 0 empty empty empty 17 7 0 10 -262144 -1 -1
1 1;
#X msg -202 -262 lighting \$1;
#X obj -176 143 gemhead;
#X msg -89 238 1 1 1;
#X obj -162 213 tgl 15 0 empty empty empty 0 -6 0 8 -262144 -1 -1 0
1;
#X msg -162 234 debug \$1;
#X floatatom -96 147 5 0 0 0 - - -;
#X obj -176 165 rotateXYZ 0 -120 0;
#X msg -90 215 1 1 0;
#X obj -176 260 world_light;
#X obj -167 190 tgl 20 0 empty \$0-onoff empty 17 7 0 10 -262144 -1
-1 1 1;
#X obj -204 -287 tgl 15 0 empty empty empty 17 7 0 10 -262144 -1 -1
1 1;
#X obj 138 -238 * 200;
#X obj 121 -388 osc~ 0.5;
#X obj 147 -273 + 1;
#X text -179 122 lighting;
#X obj -148 73 dac~;
#X obj -264 -247 loadbang;
#X text -256 -206 render;
#X text -249 -75 audio playthrough;
#X obj 39 8 snapshot~;
#X floatatom 39 34 5 0 0 0 - - -;
#X obj 53 -41 tgl 15 0 empty empty empty 17 7 0 10 -262144 -1 -1 1
1;
#X floatatom 332 68 5 0 0 0 - - -;
#X msg 207 8 draw line;
#X msg 202 39 draw fill;
#X msg 207 68 draw point;
#X obj -150 -97 adc~;
#X obj 43 -18 metro 10;
#X obj -30 -92 hsl 128 15 0 127 0 0 empty empty empty -2 -8 0 10 -262144
-1 -1 2600 1;
#X obj -31 -64 mtof;
#X floatatom 11 -65 5 0 0 0 - - -;
#X obj -32 -35 bp~ 20 1;
#X obj 37 84 * 3;
#X obj 37 58 + 0.7;
#X text -32 -112 bass drum range;
#X obj 58 -67 loadbang;
#X obj 484 24 colorRGB 0 1 0;
#X obj 291 104 sphere 0.75 30;
#X obj 497 -122 vsl 15 128 0 1 0 0 empty empty empty 0 -9 0 10 -262144
-1 -1 4900 1;
#X obj 516 -116 vsl 15 128 0 1 0 0 empty empty empty 0 -9 0 10 -262144
-1 -1 5800 1;
#X obj 543 -120 vsl 15 128 0 1 0 0 empty empty empty 0 -9 0 10 -262144
-1 -1 8600 1;
#X obj 569 -130 vsl 15 128 0 1 0 0 empty empty empty 0 -9 0 10 -262144
-1 -1 4500 1;
#X connect 1 0 0 0;
#X connect 2 0 0 0;
#X connect 4 0 0 0;
#X connect 5 0 6 0;
#X connect 5 0 55 0;
#X connect 6 0 10 0;
#X connect 6 0 56 0;
#X connect 7 0 6 1;
#X connect 8 0 6 2;
#X connect 9 0 6 3;
#X connect 11 0 10 1;
#X connect 15 0 16 0;
#X connect 16 0 32 0;
#X connect 17 0 15 0;
#X connect 18 0 17 0;
#X connect 19 0 0 0;
#X connect 20 0 25 0;
#X connect 21 0 27 1;
#X connect 22 0 23 0;
#X connect 23 0 27 0;
#X connect 24 0 25 2;
#X connect 25 0 27 0;
#X connect 26 0 27 1;
#X connect 28 0 27 0;
#X connect 29 0 19 0;
#X connect 31 0 15 0;
#X connect 32 0 30 0;
#X connect 35 0 4 0;
#X connect 38 0 39 0;
#X connect 39 0 52 0;
#X connect 40 0 46 0;
#X connect 41 0 56 1;
#X connect 42 0 56 0;
#X connect 43 0 56 0;
#X connect 44 0 56 0;
#X connect 45 0 50 0;
#X connect 45 0 34 0;
#X connect 45 1 34 1;
#X connect 46 0 38 0;
#X connect 47 0 48 0;
#X connect 48 0 50 1;
#X connect 49 0 50 2;
#X connect 50 0 38 0;
#X connect 51 0 56 1;
#X connect 52 0 51 0;
#X connect 54 0 40 0;
#X connect 55 0 56 0;
#X connect 57 0 55 1;
#X connect 58 0 55 2;
#X connect 59 0 55 3;
#X connect 60 0 55 4;
