#N canvas 154 89 1650 959 10;
#X obj -576 18 loadbang;
#X msg -579 52 \; pd dsp 1;
#X obj -201 326 netsend;
#X obj -446 156 midirealtimein;
#X msg -273 251 send \$1;
#X text -459 135 this is PD's midi input;
#X text -154 128 connect to the laptop;
#X obj -689 218 print midirealtimein;
#X obj -490 310 select 248;
#X obj -488 342 bng 15 250 50 0 empty empty empty 17 7 0 10 -262144
-1 -1;
#X obj -569 310 select 252;
#X obj -563 343 bng 15 250 50 0 empty empty empty 17 7 0 10 -262144
-1 -1;
#X text -531 291 stop;
#X obj -398 310 select 250;
#X obj -395 344 bng 15 250 50 0 empty empty empty 17 7 0 10 -262144
-1 -1;
#X text -367 288 play;
#X obj -570 908 dac~;
#X obj -555 848 *~;
#X msg -484 763 1;
#X msg -444 762 0;
#X obj -791 472 float;
#X obj -742 472 + 1;
#X obj -791 531 select 0;
#X obj -791 561 bng 15 250 50 0 empty empty empty 17 7 0 10 -262144
-1 -1;
#X msg -446 393 0;
#X obj -796 500 mod 3;
#X obj -675 474 float;
#X obj -626 474 + 1;
#X obj -675 533 select 0;
#X obj -675 563 bng 15 100 50 0 empty empty empty 17 7 0 10 -262144
-1 -1;
#X obj -680 502 mod 6;
#X obj -552 470 float;
#X obj -503 470 + 1;
#X obj -552 529 select 0;
#X obj -563 561 bng 15 250 50 0 empty empty empty 17 7 0 10 -262144
-1 -1;
#X obj -557 498 mod 12;
#X msg -684 696 1;
#X obj -440 470 float;
#X obj -391 470 + 1;
#X obj -440 529 select 0;
#X obj -433 566 bng 15 100 50 0 empty empty empty 17 7 0 10 -262144
-1 -1;
#X obj -445 498 mod 24;
#X obj -493 669 del 0;
#X obj -690 760 *~ 2;
#X obj -697 796 -~ 1;
#X msg -538 669 0;
#X text -616 727 right inlet resets phase;
#X obj -693 730 phasor~ 50;
#X obj -492 636 bng 15 250 50 0 empty empty empty 17 7 0 10 -262144
-1 -1;
#X text -654 564 16ths;
#X text -766 560 32nds;
#X text -781 627 64ths;
#X text -543 561 8ths;
#X obj -123 470 float;
#X obj -74 470 + 1;
#X obj -123 529 select 0;
#X obj -116 566 bng 15 250 50 0 empty empty empty 17 7 0 10 -262144
-1 -1;
#X obj -128 498 mod 48;
#X text -318 566 4ths;
#X obj 4 473 float;
#X obj 53 473 + 1;
#X obj 4 532 select 0;
#X obj 11 569 bng 15 250 50 0 empty empty empty 17 7 0 10 -262144 -1
-1;
#X obj -1 501 mod 96;
#X text -96 564 half notes;
#X text -473 277 raw clock ticks;
#X obj -340 471 float;
#X obj -291 471 + 1;
#X obj -340 530 select 0;
#X obj -333 567 bng 15 100 50 0 empty empty empty 17 7 0 10 -262144
-1 -1;
#X text -413 562 8ths;
#X obj -345 499 mod 36;
#X obj -442 734 del 2;
#X text -350 151 96 ticks per quarter;
#X msg -204 151 connect cb-air.local 15000;
#X msg -172 239 disconnect;
#X text -143 289 this sends MIDI clk out via the network to connect
with iOS devices \, laptop \, etc;
#X text -510 844 this sends audio clicks out via audio for use with
the modular;
#X msg -38 209 connect 10.0.0.17 15000;
#X text -27 191 connect to old iphone;
#X text 28 570 whole notes;
#X obj 253 380 netreceive 16000;
#X obj 311 427 print netreceive;
#X text 244 360 receive data from the network;
#X obj 435 719 shell;
#X obj 425 780 print STDOUT;
#X obj 462 754 print DONE;
#X obj 440 550 bng 15 250 50 0 empty empty empty 17 7 0 10 -262144
-1 -1;
#X msg 457 573 /home/chris/scripts/bitwig/space.sh;
#X msg 419 517 /home/chris/scripts/bitwig/build_space.sh;
#X text 413 497 get bitwig's window ID \, write script to control space
key;
#X text 460 550 hit bitwig's space key;
#X msg 475 624 /home/chris/scripts/bitwig/record.sh;
#X obj 466 604 bng 15 250 50 0 empty empty empty 17 7 0 10 -262144
-1 -1;
#X text 482 603 toggle record enable;
#X msg 534 675 /home/chris/scripts/bitwig/click.sh;
#X obj 526 656 bng 15 250 50 0 empty empty empty 17 7 0 10 -262144
-1 -1;
#X text 549 653 toggle metronome/click;
#X obj 337 556 route play;
#X obj 343 593 route record;
#X obj 353 637 route click;
#X obj 328 500 route fix;
#X msg 448 462 /opt/bitwig-studio-1.0.5/./bitwig-studio;
#X obj 438 428 route run_bitwig;
#X connect 0 0 1 0;
#X connect 3 0 10 0;
#X connect 3 0 13 0;
#X connect 3 0 8 0;
#X connect 3 0 4 0;
#X connect 4 0 2 0;
#X connect 8 0 9 0;
#X connect 9 0 20 0;
#X connect 9 0 26 0;
#X connect 9 0 31 0;
#X connect 9 0 37 0;
#X connect 9 0 53 0;
#X connect 9 0 59 0;
#X connect 9 0 66 0;
#X connect 10 0 11 0;
#X connect 13 0 14 0;
#X connect 14 0 24 0;
#X connect 17 0 16 0;
#X connect 18 0 17 1;
#X connect 19 0 17 1;
#X connect 20 0 21 0;
#X connect 20 0 25 0;
#X connect 21 0 20 1;
#X connect 22 0 23 0;
#X connect 24 0 20 0;
#X connect 24 0 26 0;
#X connect 24 0 31 0;
#X connect 24 0 37 0;
#X connect 24 0 53 0;
#X connect 24 0 59 0;
#X connect 24 0 66 0;
#X connect 25 0 22 0;
#X connect 26 0 27 0;
#X connect 26 0 30 0;
#X connect 27 0 26 1;
#X connect 28 0 29 0;
#X connect 29 0 48 0;
#X connect 30 0 28 0;
#X connect 31 0 32 0;
#X connect 31 0 35 0;
#X connect 32 0 31 1;
#X connect 33 0 34 0;
#X connect 35 0 33 0;
#X connect 36 0 47 0;
#X connect 37 0 38 0;
#X connect 37 0 41 0;
#X connect 38 0 37 1;
#X connect 39 0 40 0;
#X connect 41 0 39 0;
#X connect 42 0 18 0;
#X connect 42 0 72 0;
#X connect 43 0 44 0;
#X connect 44 0 17 0;
#X connect 45 0 47 1;
#X connect 47 0 43 0;
#X connect 48 0 42 0;
#X connect 48 0 45 0;
#X connect 53 0 54 0;
#X connect 53 0 57 0;
#X connect 54 0 53 1;
#X connect 55 0 56 0;
#X connect 57 0 55 0;
#X connect 59 0 60 0;
#X connect 59 0 63 0;
#X connect 60 0 59 1;
#X connect 61 0 62 0;
#X connect 63 0 61 0;
#X connect 66 0 67 0;
#X connect 66 0 71 0;
#X connect 67 0 66 1;
#X connect 68 0 69 0;
#X connect 71 0 68 0;
#X connect 72 0 19 0;
#X connect 74 0 2 0;
#X connect 75 0 2 0;
#X connect 78 0 2 0;
#X connect 81 0 82 0;
#X connect 81 0 98 0;
#X connect 81 0 99 0;
#X connect 81 0 100 0;
#X connect 81 0 101 0;
#X connect 81 0 103 0;
#X connect 84 0 85 0;
#X connect 84 1 86 0;
#X connect 87 0 88 0;
#X connect 88 0 84 0;
#X connect 89 0 84 0;
#X connect 92 0 84 0;
#X connect 93 0 92 0;
#X connect 95 0 84 0;
#X connect 96 0 95 0;
#X connect 98 0 88 0;
#X connect 99 0 92 0;
#X connect 100 0 95 0;
#X connect 101 0 89 0;
#X connect 102 0 84 0;
#X connect 103 0 102 0;
