#N canvas 330 51 1035 757 10;
#X declare -lib mrpeach;
#X obj 451 181 sendOSC;
#X obj -64 43 print osc;
#X text 582 79 Use osc address of control. OSC messages are constructed
like this: /pagenumber/controlname;
#X text 429 2 Sending values to the iPhone on port 9000 Replace 10.10.10.10
with the ip-address of the iPhone;
#X msg 429 46 connect 10.0.0.5 9000;
#X msg 456 77 send /1/fader1 1;
#X obj -155 12 dumpOSC 8000;
#X obj 21 130 tgl 15 0 empty empty empty 17 7 0 10 -262144 -1 -1 1
1;
#X obj 25 242 float;
#X obj 85 241 + 1;
#X floatatom 29 270 5 0 0 0 - - -;
#X obj 34 323 hradio 15 1 0 16 empty empty empty 0 -8 0 10 -262144
-1 -1 15;
#X obj 34 355 select 0 1 2 3 4 5 6 7 8 9 10 11 12 13 14 15;
#X msg 246 172 bang;
#X msg 157 231 send /1/clockled 1;
#X msg 282 231 send /1/clockled 0;
#X obj 278 203 delay 100;
#X obj 259 265 s to_osc;
#X obj 512 114 r to_osc;
#X obj 445 -58 import mrpeach;
#X obj 477 291 tcpreceive 8000;
#X obj 477 325 unpackOSC;
#X obj 487 362 print;
#X text 19 2 comment;
#X obj -142 53 s dumpOSC;
#X obj 409 511 r gate_out;
#X obj 364 541 bng 15 250 50 0 empty empty empty 17 7 0 10 -262144
-1 -1;
#X obj -165 175 r dumpOSC;
#X text -163 148 /1/multitoggle/1/2 0;
#X obj -165 202 OSCroute /1 /2 /3;
#X text -53 201 pages;
#X obj -165 240 OSCroute /multitoggle;
#X obj -171 274 s multitoggle_osc;
#N canvas 365 51 648 697 step16 0;
#X obj 159 11 inlet step;
#X obj 162 389 switch;
#X obj 104 367 tgl 15 0 empty empty empty 17 7 0 10 -262144 -1 -1 0
1;
#X msg 337 229 bang;
#X obj 362 319 s to_osc;
#X obj 381 257 delay 200;
#X obj 122 502 bng 15 250 50 0 empty empty empty 17 7 0 10 -262144
-1 -1;
#X obj 183 514 s gate_out;
#X floatatom 39 316 5 0 0 0 - - -;
#X obj 4 243 OSCroute /1;
#X obj 10 213 r multitoggle_osc;
#X text 97 248 row;
#X text 95 275 column;
#X obj 5 277 OSCroute /4;
#X msg 304 287 send /1/16 1;
#X msg 385 285 send /1/16 0;
#X connect 0 0 1 1;
#X connect 0 0 3 0;
#X connect 1 0 6 0;
#X connect 2 0 1 0;
#X connect 3 0 14 0;
#X connect 3 0 5 0;
#X connect 5 0 15 0;
#X connect 6 0 7 0;
#X connect 8 0 2 0;
#X connect 9 0 13 0;
#X connect 10 0 9 0;
#X connect 13 0 8 0;
#X connect 14 0 4 0;
#X connect 15 0 4 0;
#X restore 281 401 pd step16;
#N canvas 351 84 648 697 step15 0;
#X obj 159 11 inlet step;
#X obj 162 389 switch;
#X obj 104 367 tgl 15 0 empty empty empty 17 7 0 10 -262144 -1 -1 0
1;
#X msg 337 229 bang;
#X obj 362 319 s to_osc;
#X obj 381 257 delay 200;
#X obj 179 458 bng 15 250 50 0 empty empty empty 17 7 0 10 -262144
-1 -1;
#X obj 211 571 s gate_out;
#X floatatom 54 287 5 0 0 0 - - -;
#X obj 19 214 OSCroute /1;
#X obj 25 184 r multitoggle_osc;
#X text 112 219 row;
#X text 110 246 column;
#X obj 20 248 OSCroute /3;
#X msg 304 287 send /1/15 1;
#X msg 385 285 send /1/15 0;
#X connect 0 0 1 1;
#X connect 0 0 3 0;
#X connect 1 0 6 0;
#X connect 2 0 1 0;
#X connect 3 0 14 0;
#X connect 3 0 5 0;
#X connect 5 0 15 0;
#X connect 6 0 7 0;
#X connect 8 0 2 0;
#X connect 9 0 13 0;
#X connect 10 0 9 0;
#X connect 13 0 8 0;
#X connect 14 0 4 0;
#X connect 15 0 4 0;
#X restore 267 434 pd step15;
#N canvas 19 51 648 697 step14 0;
#X obj 376 50 inlet step;
#X obj 162 389 switch;
#X obj 104 367 tgl 15 0 empty empty empty 17 7 0 10 -262144 -1 -1 0
1;
#X floatatom 93 318 5 0 0 0 - - -;
#X msg 337 229 bang;
#X obj 362 319 s to_osc;
#X obj 381 257 delay 200;
#X obj 179 458 bng 15 250 50 0 empty empty empty 17 7 0 10 -262144
-1 -1;
#X obj 216 526 s gate_out;
#X obj 58 245 OSCroute /1;
#X obj 59 279 OSCroute /2;
#X obj 64 215 r multitoggle_osc;
#X text 151 250 row;
#X text 149 277 column;
#X msg 304 287 send /1/14 1;
#X msg 385 285 send /1/14 0;
#X connect 0 0 1 1;
#X connect 0 0 4 0;
#X connect 1 0 7 0;
#X connect 2 0 1 0;
#X connect 3 0 2 0;
#X connect 4 0 14 0;
#X connect 4 0 6 0;
#X connect 6 0 15 0;
#X connect 7 0 8 0;
#X connect 9 0 10 0;
#X connect 10 0 3 0;
#X connect 11 0 9 0;
#X connect 14 0 5 0;
#X connect 15 0 5 0;
#X restore 246 465 pd step14;
#N canvas 749 113 554 602 step13 0;
#X obj 159 11 inlet step;
#X obj 162 422 bng 15 75 50 0 empty empty empty 17 7 0 10 -262144 -1
-1;
#X obj 162 389 switch;
#X obj 104 367 tgl 15 0 empty empty empty 17 7 0 10 -262144 -1 -1 0
1;
#X msg 337 229 bang;
#X obj 362 319 s to_osc;
#X obj 381 257 delay 200;
#X obj 193 507 s gate_out;
#X floatatom 20 241 5 0 0 0 - - -;
#X obj -15 168 OSCroute /1;
#X obj -9 138 r multitoggle_osc;
#X text 78 173 row;
#X text 76 200 column;
#X obj -14 202 OSCroute /1;
#X msg 304 287 send /1/13 1;
#X msg 385 285 send /1/13 0;
#X connect 0 0 2 1;
#X connect 0 0 4 0;
#X connect 1 0 7 0;
#X connect 2 0 1 0;
#X connect 3 0 2 0;
#X connect 4 0 14 0;
#X connect 4 0 6 0;
#X connect 6 0 15 0;
#X connect 8 0 3 0;
#X connect 9 0 13 0;
#X connect 10 0 9 0;
#X connect 13 0 8 0;
#X connect 14 0 5 0;
#X connect 15 0 5 0;
#X restore 231 495 pd step13;
#N canvas 740 107 554 602 step1 0;
#X obj 159 11 inlet step;
#X obj 162 422 bng 15 75 50 0 empty empty empty 17 7 0 10 -262144 -1
-1;
#X obj 162 389 switch;
#X obj 104 367 tgl 15 0 empty empty empty 17 7 0 10 -262144 -1 -1 0
1;
#X msg 337 229 bang;
#X obj 362 319 s to_osc;
#X msg 304 287 send /1/1 1;
#X msg 385 285 send /1/1 0;
#X obj 381 257 delay 200;
#X obj 193 507 s gate_out;
#X floatatom 20 241 5 0 0 0 - - -;
#X obj -9 138 r multitoggle_osc;
#X text 78 173 row;
#X text 76 200 column;
#X obj -14 202 OSCroute /1;
#X obj -15 168 OSCroute /4;
#X connect 0 0 2 1;
#X connect 0 0 4 0;
#X connect 1 0 9 0;
#X connect 2 0 1 0;
#X connect 3 0 2 0;
#X connect 4 0 6 0;
#X connect 4 0 8 0;
#X connect 6 0 5 0;
#X connect 7 0 5 0;
#X connect 8 0 7 0;
#X connect 10 0 3 0;
#X connect 11 0 15 0;
#X connect 14 0 10 0;
#X connect 15 0 14 0;
#X restore -94 373 pd step1;
#N canvas 16 51 648 697 step2 0;
#X obj 376 50 inlet step;
#X obj 162 389 switch;
#X obj 104 367 tgl 15 0 empty empty empty 17 7 0 10 -262144 -1 -1 0
1;
#X floatatom 93 318 5 0 0 0 - - -;
#X msg 337 229 bang;
#X obj 362 319 s to_osc;
#X obj 381 257 delay 200;
#X msg 304 287 send /1/2 1;
#X msg 385 285 send /1/2 0;
#X obj 179 458 bng 15 250 50 0 empty empty empty 17 7 0 10 -262144
-1 -1;
#X obj 216 526 s gate_out;
#X obj 59 279 OSCroute /2;
#X obj 64 215 r multitoggle_osc;
#X text 151 250 row;
#X text 149 277 column;
#X obj 58 245 OSCroute /4;
#X connect 0 0 1 1;
#X connect 0 0 4 0;
#X connect 1 0 9 0;
#X connect 2 0 1 0;
#X connect 3 0 2 0;
#X connect 4 0 7 0;
#X connect 4 0 6 0;
#X connect 6 0 8 0;
#X connect 7 0 5 0;
#X connect 8 0 5 0;
#X connect 9 0 10 0;
#X connect 11 0 3 0;
#X connect 12 0 15 0;
#X connect 15 0 11 0;
#X restore -84 397 pd step2;
#N canvas 0 51 648 697 step3 0;
#X obj 159 11 inlet step;
#X obj 162 389 switch;
#X obj 104 367 tgl 15 0 empty empty empty 17 7 0 10 -262144 -1 -1 0
1;
#X msg 337 229 bang;
#X obj 362 319 s to_osc;
#X obj 381 257 delay 200;
#X obj 179 458 bng 15 250 50 0 empty empty empty 17 7 0 10 -262144
-1 -1;
#X msg 304 287 send /1/3 1;
#X msg 385 285 send /1/3 0;
#X obj 211 571 s gate_out;
#X floatatom 54 287 5 0 0 0 - - -;
#X obj 25 184 r multitoggle_osc;
#X text 112 219 row;
#X text 110 246 column;
#X obj 20 248 OSCroute /3;
#X obj 19 214 OSCroute /4;
#X connect 0 0 1 1;
#X connect 0 0 3 0;
#X connect 1 0 6 0;
#X connect 2 0 1 0;
#X connect 3 0 7 0;
#X connect 3 0 5 0;
#X connect 5 0 8 0;
#X connect 6 0 9 0;
#X connect 7 0 4 0;
#X connect 8 0 4 0;
#X connect 10 0 2 0;
#X connect 11 0 15 0;
#X connect 14 0 10 0;
#X connect 15 0 14 0;
#X restore -62 423 pd step3;
#N canvas 365 51 648 697 step4 0;
#X obj 159 11 inlet step;
#X obj 162 389 switch;
#X obj 104 367 tgl 15 0 empty empty empty 17 7 0 10 -262144 -1 -1 0
1;
#X msg 337 229 bang;
#X obj 362 319 s to_osc;
#X obj 381 257 delay 200;
#X obj 122 502 bng 15 250 50 0 empty empty empty 17 7 0 10 -262144
-1 -1;
#X msg 304 287 send /1/4 1;
#X msg 385 285 send /1/4 0;
#X obj 183 514 s gate_out;
#X floatatom 39 316 5 0 0 0 - - -;
#X obj 10 213 r multitoggle_osc;
#X text 97 248 row;
#X text 95 275 column;
#X obj 5 277 OSCroute /4;
#X obj 4 243 OSCroute /4;
#X connect 0 0 1 1;
#X connect 0 0 3 0;
#X connect 1 0 6 0;
#X connect 2 0 1 0;
#X connect 3 0 7 0;
#X connect 3 0 5 0;
#X connect 5 0 8 0;
#X connect 6 0 9 0;
#X connect 7 0 4 0;
#X connect 8 0 4 0;
#X connect 10 0 2 0;
#X connect 11 0 15 0;
#X connect 14 0 10 0;
#X connect 15 0 14 0;
#X restore -40 451 pd step4;
#N canvas 746 111 554 602 step5 0;
#X obj 159 11 inlet step;
#X obj 162 422 bng 15 75 50 0 empty empty empty 17 7 0 10 -262144 -1
-1;
#X obj 162 389 switch;
#X obj 104 367 tgl 15 0 empty empty empty 17 7 0 10 -262144 -1 -1 0
1;
#X msg 337 229 bang;
#X obj 362 319 s to_osc;
#X obj 381 257 delay 200;
#X obj 193 507 s gate_out;
#X floatatom 20 241 5 0 0 0 - - -;
#X obj -9 138 r multitoggle_osc;
#X text 78 173 row;
#X text 76 200 column;
#X obj -14 202 OSCroute /1;
#X obj -15 168 OSCroute /3;
#X msg 304 287 send /1/5 1;
#X msg 385 285 send /1/5 0;
#X connect 0 0 2 1;
#X connect 0 0 4 0;
#X connect 1 0 7 0;
#X connect 2 0 1 0;
#X connect 3 0 2 0;
#X connect 4 0 14 0;
#X connect 4 0 6 0;
#X connect 6 0 15 0;
#X connect 8 0 3 0;
#X connect 9 0 13 0;
#X connect 12 0 8 0;
#X connect 13 0 12 0;
#X connect 14 0 5 0;
#X connect 15 0 5 0;
#X restore -6 488 pd step5;
#N canvas 16 51 648 697 step6 0;
#X obj 376 50 inlet step;
#X obj 162 389 switch;
#X obj 104 367 tgl 15 0 empty empty empty 17 7 0 10 -262144 -1 -1 0
1;
#X floatatom 93 318 5 0 0 0 - - -;
#X msg 337 229 bang;
#X obj 362 319 s to_osc;
#X obj 381 257 delay 200;
#X obj 179 458 bng 15 250 50 0 empty empty empty 17 7 0 10 -262144
-1 -1;
#X obj 216 526 s gate_out;
#X obj 59 279 OSCroute /2;
#X obj 64 215 r multitoggle_osc;
#X text 151 250 row;
#X text 149 277 column;
#X msg 304 287 send /1/6 1;
#X msg 385 285 send /1/6 0;
#X obj 58 245 OSCroute /3;
#X connect 0 0 1 1;
#X connect 0 0 4 0;
#X connect 1 0 7 0;
#X connect 2 0 1 0;
#X connect 3 0 2 0;
#X connect 4 0 13 0;
#X connect 4 0 6 0;
#X connect 6 0 14 0;
#X connect 7 0 8 0;
#X connect 9 0 3 0;
#X connect 10 0 15 0;
#X connect 13 0 5 0;
#X connect 14 0 5 0;
#X connect 15 0 9 0;
#X restore 25 459 pd step6;
#N canvas 0 51 648 697 step7 0;
#X obj 159 11 inlet step;
#X obj 162 389 switch;
#X obj 104 367 tgl 15 0 empty empty empty 17 7 0 10 -262144 -1 -1 0
1;
#X msg 337 229 bang;
#X obj 362 319 s to_osc;
#X obj 381 257 delay 200;
#X obj 179 458 bng 15 250 50 0 empty empty empty 17 7 0 10 -262144
-1 -1;
#X obj 211 571 s gate_out;
#X floatatom 54 287 5 0 0 0 - - -;
#X obj 25 184 r multitoggle_osc;
#X text 112 219 row;
#X text 110 246 column;
#X obj 20 248 OSCroute /3;
#X msg 304 287 send /1/7 1;
#X msg 385 285 send /1/7 0;
#X obj 19 214 OSCroute /3;
#X connect 0 0 1 1;
#X connect 0 0 3 0;
#X connect 1 0 6 0;
#X connect 2 0 1 0;
#X connect 3 0 13 0;
#X connect 3 0 5 0;
#X connect 5 0 14 0;
#X connect 6 0 7 0;
#X connect 8 0 2 0;
#X connect 9 0 15 0;
#X connect 12 0 8 0;
#X connect 13 0 4 0;
#X connect 14 0 4 0;
#X connect 15 0 12 0;
#X restore 68 485 pd step7;
#N canvas 552 51 648 697 step8 1;
#X obj 159 11 inlet step;
#X obj 162 389 switch;
#X obj 104 367 tgl 15 0 empty empty empty 17 7 0 10 -262144 -1 -1 0
1;
#X msg 337 229 bang;
#X obj 362 319 s to_osc;
#X obj 381 257 delay 200;
#X obj 122 502 bng 15 250 50 0 empty empty empty 17 7 0 10 -262144
-1 -1;
#X obj 183 514 s gate_out;
#X floatatom 39 316 5 0 0 0 - - -;
#X obj 10 213 r multitoggle_osc;
#X text 97 248 row;
#X text 95 275 column;
#X obj 5 277 OSCroute /4;
#X msg 304 287 send /1/8 1;
#X msg 385 285 send /1/8 0;
#X obj 4 243 OSCroute /3;
#X connect 0 0 1 1;
#X connect 0 0 3 0;
#X connect 1 0 6 0;
#X connect 2 0 1 0;
#X connect 3 0 13 0;
#X connect 3 0 5 0;
#X connect 5 0 14 0;
#X connect 6 0 7 0;
#X connect 8 0 2 0;
#X connect 9 0 15 0;
#X connect 12 0 8 0;
#X connect 13 0 4 0;
#X connect 14 0 4 0;
#X connect 15 0 12 0;
#X restore 103 459 pd step8;
#N canvas 737 105 554 602 step9 0;
#X obj 159 11 inlet step;
#X obj 162 422 bng 15 75 50 0 empty empty empty 17 7 0 10 -262144 -1
-1;
#X obj 162 389 switch;
#X obj 104 367 tgl 15 0 empty empty empty 17 7 0 10 -262144 -1 -1 0
1;
#X msg 337 229 bang;
#X obj 362 319 s to_osc;
#X obj 381 257 delay 200;
#X obj 193 507 s gate_out;
#X floatatom 20 241 5 0 0 0 - - -;
#X obj -9 138 r multitoggle_osc;
#X text 78 173 row;
#X text 76 200 column;
#X obj -14 202 OSCroute /1;
#X msg 304 287 send /1/9 1;
#X msg 385 285 send /1/9 0;
#X obj -15 168 OSCroute /2;
#X connect 0 0 2 1;
#X connect 0 0 4 0;
#X connect 1 0 7 0;
#X connect 2 0 1 0;
#X connect 3 0 2 0;
#X connect 4 0 13 0;
#X connect 4 0 6 0;
#X connect 6 0 14 0;
#X connect 8 0 3 0;
#X connect 9 0 15 0;
#X connect 12 0 8 0;
#X connect 13 0 5 0;
#X connect 14 0 5 0;
#X connect 15 0 12 0;
#X restore 105 553 pd step9;
#N canvas 13 51 648 697 step10 0;
#X obj 376 50 inlet step;
#X obj 162 389 switch;
#X obj 104 367 tgl 15 0 empty empty empty 17 7 0 10 -262144 -1 -1 1
1;
#X floatatom 93 318 5 0 0 0 - - -;
#X msg 337 229 bang;
#X obj 362 319 s to_osc;
#X obj 381 257 delay 200;
#X obj 179 458 bng 15 250 50 0 empty empty empty 17 7 0 10 -262144
-1 -1;
#X obj 216 526 s gate_out;
#X obj 59 279 OSCroute /2;
#X obj 64 215 r multitoggle_osc;
#X text 151 250 row;
#X text 149 277 column;
#X msg 304 287 send /1/10 1;
#X msg 385 285 send /1/10 0;
#X obj 58 245 OSCroute /2;
#X connect 0 0 1 1;
#X connect 0 0 4 0;
#X connect 1 0 7 0;
#X connect 2 0 1 0;
#X connect 3 0 2 0;
#X connect 4 0 13 0;
#X connect 4 0 6 0;
#X connect 6 0 14 0;
#X connect 7 0 8 0;
#X connect 9 0 3 0;
#X connect 10 0 15 0;
#X connect 13 0 5 0;
#X connect 14 0 5 0;
#X connect 15 0 9 0;
#X restore 137 524 pd step10;
#N canvas 0 51 648 697 step11 0;
#X obj 159 11 inlet step;
#X obj 162 389 switch;
#X obj 104 367 tgl 15 0 empty empty empty 17 7 0 10 -262144 -1 -1 0
1;
#X msg 337 229 bang;
#X obj 362 319 s to_osc;
#X obj 381 257 delay 200;
#X obj 179 458 bng 15 250 50 0 empty empty empty 17 7 0 10 -262144
-1 -1;
#X obj 211 571 s gate_out;
#X floatatom 54 287 5 0 0 0 - - -;
#X obj 25 184 r multitoggle_osc;
#X text 112 219 row;
#X text 110 246 column;
#X obj 20 248 OSCroute /3;
#X msg 304 287 send /1/11 1;
#X msg 385 285 send /1/11 0;
#X obj 19 214 OSCroute /2;
#X connect 0 0 1 1;
#X connect 0 0 3 0;
#X connect 1 0 6 0;
#X connect 2 0 1 0;
#X connect 3 0 13 0;
#X connect 3 0 5 0;
#X connect 5 0 14 0;
#X connect 6 0 7 0;
#X connect 8 0 2 0;
#X connect 9 0 15 0;
#X connect 12 0 8 0;
#X connect 13 0 4 0;
#X connect 14 0 4 0;
#X connect 15 0 12 0;
#X restore 179 550 pd step11;
#N canvas 362 51 648 697 step12 0;
#X obj 159 11 inlet step;
#X obj 162 389 switch;
#X obj 104 367 tgl 15 0 empty empty empty 17 7 0 10 -262144 -1 -1 0
1;
#X msg 337 229 bang;
#X obj 362 319 s to_osc;
#X obj 381 257 delay 200;
#X obj 122 502 bng 15 250 50 0 empty empty empty 17 7 0 10 -262144
-1 -1;
#X obj 183 514 s gate_out;
#X floatatom 39 316 5 0 0 0 - - -;
#X obj 10 213 r multitoggle_osc;
#X text 97 248 row;
#X text 95 275 column;
#X obj 5 277 OSCroute /4;
#X msg 304 287 send /1/12 1;
#X msg 385 285 send /1/12 0;
#X obj 4 243 OSCroute /2;
#X connect 0 0 1 1;
#X connect 0 0 3 0;
#X connect 1 0 6 0;
#X connect 2 0 1 0;
#X connect 3 0 13 0;
#X connect 3 0 5 0;
#X connect 5 0 14 0;
#X connect 6 0 7 0;
#X connect 8 0 2 0;
#X connect 9 0 15 0;
#X connect 12 0 8 0;
#X connect 13 0 4 0;
#X connect 14 0 4 0;
#X connect 15 0 12 0;
#X restore 214 524 pd step12;
#X obj 30 295 mod 16;
#X obj 22 169 metro 200;
#X floatatom 244 620 5 0 0 0 - - -;
#X obj 444 591 delay 50;
#X obj 327 684 wiringPi_gpio 0 0 1;
#X text 449 684 GATE wiringPi 0 = BCM 17;
#X msg 324 626 1;
#X msg 366 627 0;
#X obj 54 50 loadbang;
#X obj 325 -24 loadbang;
#X obj 340 7 delay 2000;
#X obj 276 21 bng 15 250 50 0 empty empty empty 17 7 0 10 -262144 -1
-1;
#X connect 4 0 0 0;
#X connect 5 0 0 0;
#X connect 6 0 24 0;
#X connect 6 0 1 0;
#X connect 7 0 50 0;
#X connect 8 0 9 0;
#X connect 8 0 10 0;
#X connect 9 0 8 1;
#X connect 10 0 49 0;
#X connect 11 0 12 0;
#X connect 12 0 37 0;
#X connect 12 1 38 0;
#X connect 12 2 39 0;
#X connect 12 3 40 0;
#X connect 12 4 41 0;
#X connect 12 5 42 0;
#X connect 12 6 43 0;
#X connect 12 7 44 0;
#X connect 12 8 45 0;
#X connect 12 9 46 0;
#X connect 12 10 47 0;
#X connect 12 11 48 0;
#X connect 12 12 36 0;
#X connect 12 13 35 0;
#X connect 12 14 34 0;
#X connect 12 15 33 0;
#X connect 13 0 14 0;
#X connect 13 0 16 0;
#X connect 14 0 17 0;
#X connect 15 0 17 0;
#X connect 16 0 15 0;
#X connect 18 0 0 0;
#X connect 20 0 21 0;
#X connect 21 0 22 0;
#X connect 25 0 26 0;
#X connect 26 0 52 0;
#X connect 26 0 55 0;
#X connect 27 0 29 0;
#X connect 29 0 31 0;
#X connect 31 0 32 0;
#X connect 49 0 11 0;
#X connect 50 0 8 0;
#X connect 50 0 13 0;
#X connect 52 0 56 0;
#X connect 55 0 53 0;
#X connect 56 0 53 0;
#X connect 57 0 7 0;
#X connect 58 0 59 0;
#X connect 59 0 4 0;
#X connect 60 0 59 0;
